<svg width="1920" height="1080" viewBox="0 0 1920 1080" fill="none" xmlns="http://www.w3.org/2000/svg">
<g clip-path="url(#clip0_105_192)">
<rect x="1919.95" y="1080.06" width="1920" height="1080.05" transform="rotate(-179.997 1919.95 1080.06)" fill="#101526"/>
<path d="M24.7261 531.812C64.2115 531.385 103.947 526.496 142.015 515.832C172.448 507.309 203.055 494.053 225.331 470.964C271.1 423.513 257.793 347.666 216.146 302.129C168.878 250.461 96.2978 231.31 49.9749 178.36C30.0094 155.533 16.5023 127.568 17.407 96.7586C18.1961 70.0268 29.3097 42.6487 52.1846 27.4839C78.9733 9.72573 112.656 15.2574 139.562 29.5618C169.36 45.4085 190.55 70.8858 212.019 96.1705C233.074 120.992 255.903 146.586 287.397 157.853C322.189 170.297 360.257 165.427 395.655 158.436C414.154 154.781 433.086 149.103 452.116 150.644C467.848 151.906 482.029 158.489 494.157 168.408C519.8 189.365 532.324 220.665 547.152 249.256C554.865 264.111 563.493 278.744 575.505 290.572C587.479 302.371 602.45 310.198 618.212 315.692C649.369 326.554 682.791 329.782 713.022 343.498C742.705 356.974 769.197 381.284 775.464 414.475C778.434 430.207 776.777 446.788 769.094 460.988C761.614 474.802 749.218 485.166 735.761 492.898C668.167 531.77 586.497 525.113 513.04 536.231C482.067 540.918 450.208 553.124 430.09 578.266C420.297 590.509 414.6 605.644 414.196 621.329C413.754 638.044 419.114 654.249 427.049 668.786C443.882 699.623 470.701 722.902 497.289 745.121C523.135 766.733 549.733 787.544 573.989 810.988C577.189 814.091 580.351 817.253 583.456 820.463C584.111 821.003 584.767 821.533 585.413 822.083C598.919 833.447 612.261 845.352 622.933 859.503C632.651 872.382 640.103 887.468 640.991 903.808C641.725 917.313 637.966 931.484 629.714 942.282C620.817 953.918 606.753 960.387 592.081 959.308C546.184 955.936 508.094 901.443 471.442 877.586C441.383 858.018 405.685 841.208 369.275 840.303C330.175 839.341 292.831 854.42 255.977 865.363C225.814 874.32 194.542 880.424 163.01 876.117C134.417 872.204 107.444 859.346 91.3439 834.61C74.569 808.824 72.5141 776.935 65.9093 747.697C56.4407 705.773 31.7612 683.323 -3.99425 669.8L-4.00114 531.273C5.56176 531.716 15.1439 531.908 24.7261 531.812ZM10.0282 595.051C3.57046 615.777 27.9699 628.52 44.04 632.934C55.9263 636.192 68.4102 637.657 80.7301 637.193C93.4259 636.73 105.582 633.587 118.046 631.436C128.872 629.566 140.729 628.938 150.813 634.115C160.655 639.156 164.84 648.747 164.831 659.467C164.812 670.399 161.862 681.051 160.301 691.8C158.49 704.303 158.693 716.951 160.882 729.386C162.511 738.66 165.442 748.811 173 755.047C180.732 761.429 190.893 761.255 199.52 756.829C208.89 752.028 215.146 743.564 220.216 734.627C225.045 726.105 229.479 716.128 237.952 710.555C256.75 698.196 281.159 712.732 297.027 723.48C314.274 735.143 329.824 749.063 345.383 762.828C361.059 776.699 376.83 790.609 394.27 802.243C410.263 812.914 429.987 824.182 449.566 825.647C458.965 826.35 468.634 823.284 474.118 815.225C478.89 808.206 479.217 798.981 477.192 790.97C473.008 774.428 459.425 765.242 446.95 755.082C427.486 736.69 410.248 716.273 395.71 693.774C382.58 673.444 371.705 651.6 363.635 628.773C353.569 600.307 343.822 570.269 363.216 543.131C382.957 515.502 415.521 508.405 446.745 501.907C480.002 494.983 513.703 490.2 547.569 487.605C572.825 485.667 599.364 477.182 613.042 454.026C618.43 444.906 621.052 433.676 617.272 423.457C613.975 414.541 606.629 407.754 598.396 403.32C588.158 397.788 576.629 396.024 565.388 393.634C554.283 391.272 543.862 387.706 534.761 380.747C517.977 367.897 510.014 348.83 509.01 328.123C508.055 308.352 511.36 287.924 506.327 268.5C501.69 250.647 485.079 229.555 464.228 236.285C455.301 239.158 449.123 246.543 443.426 253.58C436.938 261.563 430.432 268.639 420.821 272.871C398.669 282.638 373.874 276.373 352.483 267.736C330.05 258.695 308.398 247.311 287.739 234.761C267.176 222.278 247.51 208.301 229.029 192.897C212.592 179.2 197.428 161.926 177.405 153.395C168.893 149.761 158.539 147.198 149.439 150.196C139.317 153.523 135.539 163.076 137.467 173.053C141.305 192.911 158.089 208.643 173.841 219.805C214.533 248.637 261.346 267.297 304.033 292.764C334.265 310.799 363.495 338.725 357.327 376.909C351.863 410.746 329.664 440.708 309.46 467.354C295.839 485.314 280.358 502.021 262.901 516.308C245.665 530.403 226.193 541.962 205.168 549.405C182.341 557.494 158.251 561.274 134.248 563.792C109.704 566.357 85.0454 567.785 60.5985 571.237C43.9503 573.581 16.1101 575.52 10.0282 595.051Z" fill="#0E121F"/>
<path d="M58.9297 937.5C109.126 951.668 159.744 914.6 209.969 931.997C228.256 938.34 243.546 953.502 248.994 972.242C254.056 989.662 247.819 1007.35 233.254 1018C219.566 1028.02 201.963 1030.86 185.932 1035.14C171.077 1039.1 155.769 1043.97 147.894 1058.33C142.351 1068.45 141.137 1080.51 142.767 1091.93C145.592 1111.68 156.13 1130.02 162.715 1148.69C173.291 1178.69 182.133 1211.07 171.646 1242.33C163.145 1267.69 142.372 1289.54 113.876 1287.97C85.727 1286.43 65.0192 1264.77 54.9923 1239.88C48.3496 1223.38 45.8905 1205.72 44.0869 1188.14C42.1098 1169.02 40.4604 1149.87 38.8592 1130.72C38.8399 1130.48 38.8495 1130.28 38.8592 1130.07C33.4397 1094.84 22.4096 1056.23 -3.9859 1031.54L-3.98867 975.937C8.89086 985.789 20.0739 998.012 29.0976 1011.28C48.6682 1040.02 60.2089 1073.14 71.0556 1105.95C73.823 1121.26 80.2633 1137.37 89.7979 1149.45C100.046 1162.45 118.034 1157.32 124.28 1143.31C127.827 1135.38 127.479 1126.73 127.19 1118.24C126.881 1108.9 126.408 1099.54 124.971 1090.3C123.091 1078.23 118.473 1066.91 114.115 1055.58C110.837 1047.06 102.989 1033.19 108.532 1024.36C112.821 1017.53 121.709 1017.6 128.698 1015.9C147.92 1011.19 172.067 991.729 158.715 969.702C154.81 963.263 148.072 960.168 140.909 958.8C131.819 957.065 122.497 956.285 113.281 955.659C76.9091 953.183 38.2432 955.624 4.72404 938.775C1.74521 937.271 -1.15651 935.652 -3.99076 933.926L-3.99474 853.905C4.18178 889.987 21.1982 926.859 58.9201 937.5L58.9297 937.5Z" fill="#0E121F"/>
<path d="M5.00577 1369.87C40.0746 1340 88.3423 1345.01 130.951 1340.31C154.395 1337.73 178.611 1331.47 195.393 1313.84C212.657 1295.69 219.163 1269.64 220.01 1245.23C220.54 1230.19 218.929 1215.16 215.246 1200.57C211.804 1187 206.077 1174.33 201.092 1161.29C192.772 1139.56 187.883 1112.15 204.762 1092.98C218.363 1077.53 240.641 1076.4 259.468 1072.88C268.5 1071.2 278.044 1069.03 285.534 1063.38C304.321 1049.2 297.302 1021.01 299.644 1000.8C309.973 911.517 425.518 902.854 478.926 957.723C494.737 973.965 505.274 994.141 509.835 1016.31C514.878 1040.83 514.012 1067.79 526.304 1090.26C537.371 1110.49 558.031 1121.92 578.863 1129.89C600.081 1138 622.147 1143.58 642.989 1152.71C685.377 1171.27 725.327 1202.69 743.761 1246.24C760.141 1284.92 758.061 1333.61 732.527 1368C717.634 1388.04 696.446 1398.73 674.11 1408.64C652.623 1418.18 627.232 1429.73 617.777 1453.07C612.263 1466.65 614.77 1481.27 618.55 1494.94C619.389 1497.97 620.266 1500.98 621.163 1503.98L533.998 1503.98C539.925 1475.47 538.285 1445.55 545.716 1417.21C550.535 1398.82 560 1383.17 573.872 1370.2C586.972 1357.97 602.309 1348.52 617.298 1338.83C632.298 1329.14 648.329 1319.26 659.549 1305.1C669.988 1291.94 675.694 1274.28 669.649 1257.89C663.488 1241.2 647.168 1234.62 630.519 1233.71C585.857 1231.25 521.106 1252.79 486.67 1215.4C465.259 1192.15 458.374 1160.44 451.885 1130.49C447.98 1112.48 443.94 1093.62 432.496 1078.68C422.788 1065.98 406.901 1057.6 390.667 1059.49C361.613 1062.87 360.332 1094.11 357.518 1116.63C354.493 1140.83 341.084 1149.89 319.24 1157.22C303.353 1162.54 289.347 1169.86 282.735 1186.22C275.226 1204.79 279.459 1224.74 282.921 1243.69C289.42 1279.29 284.467 1316.44 264.003 1346.91C241.302 1380.71 203.109 1393.15 166.651 1406.44C127.321 1420.79 75.9118 1445.99 73.5042 1494.4C73.3404 1497.65 73.4466 1500.85 73.7649 1504L11.317 1504.01C6.67959 1492.6 1.07819 1481.42 -3.95445 1470.04L-3.95897 1379.25C-1.3467 1375.88 1.63191 1372.73 5.00577 1369.86L5.00577 1369.87Z" fill="#0E121F"/>
<path d="M755.81 1418.18C773.952 1407.99 796.664 1407.85 816.416 1412.8C836.468 1417.84 854.399 1429.29 865.842 1446.69C877.247 1464.01 881.384 1483.8 881.394 1503.96L721.602 1503.97C721.6 1471.43 725.58 1435.15 755.81 1418.18Z" fill="#0E121F"/>
<path d="M959.436 1431.98C955.531 1412.09 950.604 1392.48 944.954 1373.05C937.829 1356.71 929.538 1340.86 920.109 1325.67C893.713 1283.08 858.892 1248.24 819.115 1218.1C779.012 1187.73 736.324 1159.33 707.026 1117.52C681.382 1080.9 674.642 1041.24 680.549 997.237C684.22 969.907 691.622 943.252 689.173 915.47C687.051 891.389 679.106 868.369 668.298 846.873C646.577 803.658 614.609 766.699 590.748 724.757C579.179 704.427 568.198 680.607 572.988 656.651C577.017 636.446 592.835 622.708 611.392 615.67C631.192 608.159 652.255 608.062 673.107 608.205C697.081 608.378 724.777 608.849 743.998 592.286C761.08 577.565 769.745 555.065 776.473 534.165C787.152 500.983 802.053 453.352 842.695 447.402C864.163 444.258 884.061 455.95 896.43 472.926C911.006 492.928 914.285 518.869 915.733 542.892C917.18 566.934 916.236 591.024 915.833 615.086C915.054 661.483 915.972 711.11 943.815 750.526C958.478 771.29 978.723 787.301 994.418 807.207C1008.45 825.011 1018.24 845.602 1023.62 867.619C1034.54 912.262 1028.48 960.211 1013.97 1003.32C1005.6 1028.16 993.871 1053.08 992.764 1079.67C992.244 1091.97 994.413 1104.1 1000.03 1115.11C1005.27 1125.35 1012.64 1134.2 1020.11 1142.87C1034.95 1160.13 1049.2 1177.85 1054.58 1200.45C1059.74 1222.1 1058.13 1244.75 1057 1266.76C1055.7 1292.17 1055.18 1319.48 1066.5 1342.96C1078.18 1367.17 1095.44 1387.77 1104.88 1413.32C1115.4 1441.75 1116.48 1477.34 1101.32 1503.96L978.845 1503.97C978.296 1503.02 977.765 1502.07 977.254 1501.09C966.196 1479.77 964.016 1455.2 959.446 1431.99L959.436 1431.98ZM1000.84 1334.79C1004.37 1327.14 1003.95 1318.17 1003.2 1309.99C1002.26 1299.99 1000.25 1290.15 997.266 1280.58C986.236 1245.28 964.294 1215.33 946.651 1183.24C946.863 1182.36 946.795 1181.38 946.333 1180.37C941.059 1169.02 936.682 1157.29 933.23 1145.26C926.365 1121.31 923.106 1096.52 923.615 1071.61C924.144 1046.04 929.146 1021.48 936.857 997.166C944.423 973.278 951.585 949.177 948.45 923.834C945.586 900.737 933.342 882.691 916.761 867.046C900.806 851.999 882.952 838.764 872.28 819.119C861.173 798.673 857.682 774.901 857.729 751.89C857.786 725.187 862.624 698.821 865.669 672.379C868.271 649.782 873.504 619.657 856.71 601.072C849.576 593.177 839.299 589.283 828.773 591.424C817.841 593.651 807.671 601.345 800.393 609.548C793.038 617.839 788.026 627.595 785.115 638.267C782.185 649.016 780.836 661.152 772.913 669.655C757.914 685.764 732.599 683.655 712.663 683.665C692.574 683.666 663.046 686.203 654.844 708.568C650.728 719.76 655.761 731.849 660.495 742.009C665.691 753.191 672.574 763.467 680.374 773.001C695.972 792.077 714.954 808.089 729.656 827.956C756.64 864.432 772.308 909.036 775.019 954.266C776.418 977.711 774.067 1000.76 769.084 1023.67C766.27 1036.56 763.253 1049.62 763.196 1062.88C763.148 1074.14 765.289 1085.4 769.222 1095.93C783.53 1134.22 814.09 1154.99 845.672 1177.82C867.719 1193.77 884.879 1214.54 899.774 1237.11C909.945 1252.52 919.008 1268.63 927.733 1284.88C936.901 1301.95 945.559 1319.87 959.258 1333.89C965.351 1340.12 972.928 1345.61 981.932 1346C989.991 1346.33 997.433 1342.16 1000.84 1334.79Z" fill="#0E121F"/>
<path d="M173.025 1444.67C192.304 1426.71 215.256 1415.14 239.231 1404.76C263.301 1394.34 288.548 1384.12 307.316 1365.12C326.624 1345.58 338.046 1318.47 341.631 1291.46C344.608 1268.96 341.763 1240.62 360.956 1224.36C375.849 1211.74 398.686 1209.64 416.732 1215.81C433.67 1221.59 444.371 1238.8 452.604 1253.63C460.404 1267.69 472.195 1298.4 491.938 1297.91C500.778 1297.69 509.077 1292.5 517.358 1289.93C529.591 1286.15 543.145 1280.44 556.168 1283.31C567.149 1285.73 573.926 1295.17 574.408 1306.11C574.901 1317.1 569.763 1327.64 562.9 1335.9C548.325 1353.42 526.905 1363.09 508.426 1375.7C499.23 1381.99 490.39 1389.33 484.269 1398.76C476.972 1410.01 474.014 1423.25 470.939 1436.12C467.932 1448.74 464.703 1461.63 457.773 1472.76C451.613 1482.67 442.928 1490.71 433.067 1496.85C428.632 1499.62 424.034 1501.97 419.301 1503.99L133.571 1504C141.745 1481.63 155.423 1461.07 173.025 1444.67Z" fill="#0E121F"/>
<path d="M1428.2 1464.54C1420.23 1443.93 1401.02 1427.98 1378.11 1430.38C1366.09 1431.63 1354.82 1436.84 1344 1441.92C1333.29 1446.93 1322.58 1451.85 1311.28 1455.41C1289.31 1462.37 1264.4 1465.09 1242.34 1457C1213.75 1446.5 1194.13 1421.86 1197.75 1390.24C1200.64 1365.13 1216.82 1343.07 1236.77 1327.56C1262.71 1307.4 1291.42 1296.31 1321.35 1288.02C1344.36 1281.66 1368.11 1276.96 1391.89 1271.08C1430.52 1261.55 1476.94 1242.25 1490.77 1201.15C1498.84 1177.18 1492.39 1152.18 1484.99 1128.94C1473.31 1092.21 1456 1042.96 1487.27 1010.55C1501.91 995.384 1523.75 990.341 1544.16 990.195C1564.68 990.059 1587.84 994.242 1602.19 1010.22C1609.55 1018.42 1614.04 1028.48 1617.89 1038.68C1622.41 1050.68 1626.16 1062.99 1629.2 1075.45C1635.15 1099.92 1637.34 1124.7 1639.25 1149.75C1641.09 1173.94 1643.33 1199.78 1655.01 1221.55C1664.53 1239.29 1680.57 1255.26 1700.49 1260.42C1745.72 1272.12 1767.86 1219.36 1791.34 1191.79C1803.96 1176.99 1820.38 1163.53 1840.48 1161.83C1860.13 1160.17 1877.58 1171.36 1888.36 1187.15C1915.86 1227.36 1891.11 1275.65 1866.8 1310.45C1853 1330.2 1837.52 1349.66 1828.67 1372.29C1820.55 1393.09 1817.55 1418.09 1828.44 1438.5C1838.84 1457.97 1859.45 1469.6 1873.68 1485.95C1878.53 1491.53 1883.1 1497.55 1887.14 1503.91L1801.71 1503.92C1798.43 1494.29 1793.08 1485.13 1787.84 1476.72C1778.24 1461.32 1765.88 1444.63 1766.96 1425.54C1768.32 1401.68 1790.04 1385.44 1804.98 1369.36C1819.32 1353.93 1834.74 1331.39 1825.99 1309.41C1822.4 1300.42 1814.55 1292.82 1804.31 1293.37C1792.88 1293.99 1784.59 1303.65 1776.6 1310.68C1766.43 1319.63 1755.7 1327.9 1744.44 1335.42C1733.59 1342.66 1722.15 1349.55 1709.58 1353.32C1686.67 1360.19 1664.96 1352.95 1648.8 1335.85C1633.17 1319.3 1624.97 1298.01 1619.89 1276.17C1613.86 1250.19 1611.32 1223.26 1601.79 1198.18C1594.72 1179.62 1579.54 1157.53 1556.47 1165.68C1532.69 1174.07 1527.36 1200.13 1527.78 1222.44C1528.21 1245.3 1532 1273.11 1510.05 1287.77C1491.6 1300.09 1467.24 1300.47 1446.05 1303.95C1419.93 1308.23 1393.19 1313.88 1368.46 1323.47C1352.08 1329.81 1333.05 1340.76 1324.27 1356.52C1322.01 1360.56 1320.42 1365.13 1320.77 1369.75C1321.1 1374.11 1323.12 1378.2 1325.79 1381.65C1337.91 1397.33 1355.64 1395.22 1373.02 1392.93C1387.77 1391 1402.49 1388.07 1417.31 1386.36C1430.49 1384.83 1444.22 1384.83 1456.58 1389.66C1479.94 1398.8 1488.96 1426.45 1489.96 1449.62C1490.74 1467.88 1485.46 1485.82 1484.48 1503.93L1434.03 1503.94C1434.21 1490.53 1433.02 1477 1428.2 1464.54Z" fill="#0E121F"/>
<path d="M1618.14 1455.03C1646.05 1442.19 1677.93 1472.49 1696.74 1489.45C1702 1494.2 1707.17 1499.05 1712.32 1503.92L1585.47 1503.93C1589.63 1493.28 1593.75 1482.61 1599.57 1472.86C1604.04 1465.39 1610.21 1458.68 1618.13 1455.03L1618.14 1455.03Z" fill="#0E121F"/>
<path d="M1856.06 1007.04C1836.12 1008.7 1819.94 1019.15 1808.82 1035.52C1798.39 1050.87 1791.26 1068.98 1777.56 1081.91C1762.2 1096.41 1741.04 1099.11 1721.72 1091.3C1682.77 1075.57 1668.37 1032.88 1658.23 995.684C1648.08 958.532 1638.96 914.854 1603.15 893.599C1514.3 840.873 1457.52 975.614 1383.25 997.211C1361.56 1003.52 1335.25 1006.95 1314.26 996.559C1284.08 981.628 1277.04 941.276 1271.57 911.479C1259.52 845.879 1265.9 770.995 1293.89 709.896C1321.77 649.037 1379.25 620.423 1444.94 634.021C1491.37 643.63 1530.33 671.382 1565.94 701.409C1584.78 717.294 1602.96 733.971 1621.96 749.673C1640.74 765.183 1661.12 781.213 1685.39 786.707C1706.88 791.574 1731.24 786.743 1744.72 768.099C1751.31 758.979 1754.98 748.086 1757.16 737.135C1759.35 726.097 1759.54 714.615 1763.09 703.867C1770.6 681.058 1794.48 671.908 1816.9 671.339C1839.39 670.778 1860.9 679.916 1876.66 695.84C1911.26 730.803 1913.3 782.435 1919.47 828.215C1920.58 836.447 1922.04 845.104 1924.01 853.809L1924.02 933.83C1900.6 919.535 1882.39 897.702 1870.41 873.082C1863.54 858.979 1859.45 844.23 1856.05 828.98C1852.8 814.414 1848.96 798.787 1838.06 787.875C1826.93 776.732 1811.07 773.986 1795.96 776.02C1779.05 778.296 1764.25 786.838 1749.81 795.389C1734.56 804.432 1719.15 813.022 1701.19 814.884C1683.7 816.687 1666.15 813.131 1649.8 807.02C1615.89 794.345 1588.35 770.372 1559.92 748.761C1530.87 726.677 1499.87 707.88 1463.21 702.329C1431.08 697.473 1395.25 701.215 1369.2 722.25C1332.1 752.194 1327.31 811.808 1338.1 855.004C1343.98 878.564 1357.98 889.611 1382.52 888.578C1447.97 885.799 1500.33 833.547 1566 833.12C1597.86 832.906 1629.26 846.584 1651.4 869.381C1672.38 891.003 1679.98 920.404 1696.28 945.053C1703.72 956.303 1713.2 966.424 1725.65 972.092C1741.78 979.446 1760.01 978.742 1776.91 974.711C1810.78 966.651 1841.83 946.598 1877.86 954.086C1894.81 957.604 1910.37 965.392 1924.02 975.842L1924.02 1031.45C1920.43 1028.08 1916.56 1024.98 1912.38 1022.17C1895.95 1011.18 1875.83 1005.38 1856.06 1007.04Z" fill="#0E121F"/>
<path d="M1924.04 1379.16L1924.05 1469.94C1918.22 1456.76 1913.18 1443.33 1911.31 1429.03C1908.95 1410.94 1913.21 1393.14 1924.04 1379.16Z" fill="#0E121F"/>
<path d="M1083.24 969.743C1084.55 953.249 1082.94 936.706 1080.84 920.357C1077.08 891.216 1072 861.611 1077.92 832.383C1083.39 805.332 1099.65 783.295 1123.37 769.344C1144.26 757.062 1173.32 747.671 1196.56 758.929C1222.83 771.663 1224.41 805.952 1221.35 831.084C1219.45 846.864 1215.7 862.327 1212.78 877.944C1209.9 893.359 1208.34 908.918 1208.75 924.621C1209.52 954.341 1217.33 983.994 1233.61 1009.07C1247.99 1031.22 1268.98 1049.63 1293.79 1059.1C1321.04 1069.52 1351.4 1070.64 1377.21 1085.02C1399.6 1097.51 1416.76 1119.45 1412.67 1146.25C1400.91 1223.25 1301.05 1223.79 1244.72 1242.89C1230.08 1247.86 1214.09 1254.83 1202.59 1265.46C1192.36 1274.92 1186.52 1288.22 1175.68 1297.14C1161.49 1308.82 1139.59 1310.38 1124.19 1300.12C1105.64 1287.78 1105.98 1263.94 1109.02 1243.9C1111.46 1227.77 1116.18 1211.98 1117.7 1195.74C1119.08 1181.03 1117.44 1166.06 1110.1 1153.05C1103.43 1141.24 1092.23 1134.51 1081.62 1126.6C1071.09 1118.77 1063.16 1109.27 1059.22 1096.59C1050.68 1069 1061.68 1041.04 1071.38 1015.44C1077 1000.61 1081.98 985.658 1083.24 969.752L1083.24 969.743ZM1100.73 1075.11C1105.31 1083.88 1114.08 1089.16 1122.75 1093.21C1131.81 1097.45 1141.83 1100.75 1149.49 1107.41C1158.36 1115.11 1163.9 1126.29 1164.44 1138.04C1165.52 1161.44 1137.57 1221.89 1177.13 1230.46C1183.81 1231.91 1190.8 1229.66 1196.7 1226.2C1210.42 1218.14 1219.31 1204.45 1231.38 1194.41C1247.23 1181.23 1262.75 1186.87 1280.67 1180.54C1291.02 1176.89 1302.44 1170.36 1306.75 1159.66C1310.93 1149.3 1306.73 1138.66 1299.58 1130.78C1282.16 1111.59 1255.4 1106.96 1231.85 1099.91C1219.24 1096.14 1208.87 1089.79 1201.17 1078.94C1194.3 1069.26 1189.58 1058.18 1184.74 1047.4C1179.09 1034.81 1173.66 1022.07 1170.19 1008.68C1169.66 1006.61 1169.2 1004.52 1168.8 1002.44C1166.66 987.948 1166.18 973.219 1167.18 958.421C1168.18 943.951 1170.32 929.588 1172.8 915.301C1175.03 902.383 1177.71 889.475 1178.57 876.365C1179.35 864.594 1178.64 852.477 1174.41 841.372C1170.89 832.137 1164.42 820.338 1152.61 823.433C1141.33 826.393 1135.01 839.243 1132.3 849.578C1129.3 860.963 1129.67 872.945 1130.77 884.561C1132.08 898.578 1134.06 912.478 1134.73 926.553C1135.42 940.762 1135.96 955.521 1132.94 969.518C1127.47 994.872 1110.98 1015.95 1101.81 1039.89C1097.52 1051.09 1094.91 1063.95 1100.73 1075.11Z" fill="#0E121F"/>
<path d="M1344.02 1492.57C1353.57 1494.6 1362 1498.57 1369.25 1503.94L1272.37 1503.94C1294.91 1493.6 1318.63 1487.19 1344.02 1492.57Z" fill="#0E121F"/>
<path d="M27.3743 -105.836C24.8784 -89.2068 11.2962 -78.0142 -4.03122 -73.3669L-4.03536 -156.666C-2.45435 -155.789 -0.882989 -154.873 0.659459 -153.9C16.4888 -143.836 30.3231 -125.54 27.3743 -105.836Z" fill="#0E121F"/>
<path d="M618.913 -317.28C589.012 -267.662 522.862 -264.815 471.587 -274.307C438.222 -280.485 404.231 -292.861 369.865 -287.991C341.109 -283.922 318.871 -259.965 303.4 -236.906C287.957 -213.885 276.352 -188.444 259.657 -166.233C244.918 -146.624 226.285 -129.898 204.644 -118.213C163.453 -95.9715 112.747 -94.7254 73.1924 -121.388C54.2299 -134.179 39.9329 -152.253 32.5861 -173.962C24.0149 -199.315 25.421 -226.741 27.8972 -252.971C30.5757 -281.255 33.7748 -309.154 31.5369 -337.601C29.3183 -365.846 22.8774 -393.831 12.6962 -420.273C12.2141 -421.516 11.7224 -422.75 11.2211 -423.984L73.669 -423.987C75.8295 -402.346 87.8515 -382.488 91.6218 -361.097C96.4335 -333.777 93.0899 -305.734 97.5063 -278.367C100.033 -262.731 105.972 -247.288 115.574 -234.621C124.723 -222.562 137.506 -213.626 152.766 -211.738C169.598 -209.656 185.417 -216.964 197.852 -227.858C224.823 -251.497 232.379 -287.29 251.879 -316.057C252.737 -317.33 253.634 -318.554 254.55 -319.749C276.499 -338.307 304.117 -347.833 333.432 -351.045C352.095 -353.089 370.96 -352.946 389.691 -351.973C407.863 -351.029 426.005 -348.977 444.225 -349.595C461.519 -350.174 479.256 -353.067 494.41 -361.869C509.583 -370.671 520.234 -384.688 526.885 -400.72C530.037 -408.335 532.263 -416.115 533.902 -424.01L621.067 -424.014C624.171 -413.603 627.411 -403.26 629.301 -392.511C633.746 -367.149 632.504 -339.819 618.913 -317.271L618.913 -317.28Z" fill="#0E121F"/>
<path d="M871.71 -363.285C860.308 -322.035 843.787 -278.905 858.239 -236.2C864.188 -218.637 875.66 -204.042 892.251 -195.493C908.177 -187.29 926.108 -183.907 941.985 -175.559C957.814 -167.231 969.383 -153.225 970.82 -134.957C972.277 -116.477 963.592 -97.4765 950.405 -84.7992C917.592 -53.2265 868.014 -56.8391 827.141 -44.8353C806.772 -38.8575 784.6 -27.7513 777.043 -6.42715C773.024 4.929 772.369 17.3936 771.772 29.3183C771.647 31.632 771.57 33.9358 771.493 36.2494C770.55 64.7067 783.208 93.52 785.813 121.804C788.996 156.353 788.969 203.802 759.693 228.038C702.617 275.277 620.443 220.285 591.954 167.584C579.46 144.468 569.607 119.646 553.256 99.0842C525.395 64.0732 490.671 59.6115 451.264 76.657C433.845 84.206 416.667 93.3648 397.936 97.2796C334.197 110.605 297.225 42.8476 296.547 -12.2451C295.715 -80.3612 333.992 -150.06 393.237 -184.198C447.846 -215.666 512.878 -211.071 573.427 -216.704C611.774 -220.273 654.219 -228.922 683.35 -253.313C696.469 -264.303 706.889 -278.484 713.019 -296.829C724.316 -330.656 722.627 -368.146 721.835 -403.313C721.69 -409.868 721.497 -416.857 721.496 -424.019L881.289 -424.027C881.29 -403.436 877.001 -382.45 871.7 -363.276L871.71 -363.285ZM816.338 -359.783C811.267 -372.064 798.811 -381.607 785.103 -379.322C771.193 -377.017 761.756 -363.656 758.672 -350.738C753.631 -329.578 755.474 -306.606 750.664 -285.012C741.528 -243.955 723.706 -192.477 689.572 -165.367C665.135 -145.98 633.526 -137.755 603.141 -133.84C539.807 -125.672 465.781 -133.476 415.25 -86.2572C395.007 -67.3521 379.701 -35.6261 396.707 -9.58939C414.629 17.8741 453.806 11.7122 480.932 5.79192C496.607 2.3689 512.387 -1.82537 528.544 -1.82617C543.765 -1.81728 557.898 2.7804 570.507 11.2244C597.626 29.3944 612.463 59.7018 627.416 87.6089C640.441 111.911 656.657 142.469 685.76 149.813C698.958 153.148 714.623 150.862 722.643 138.793C730.152 127.504 728.435 112.475 726.005 99.895C719.352 65.5094 705.208 32.1077 706.141 -3.42546C706.565 -19.4761 710.574 -34.7268 718.671 -48.5124C735.627 -70.9744 764.286 -81.5317 790.902 -88.2329C806.181 -92.08 822.212 -94.3269 836.961 -100.006C848.095 -104.296 859.827 -110.89 864.926 -122.285C870.632 -135.049 865.416 -148.583 855.988 -157.991C844.814 -169.134 829.004 -173.308 817.176 -183.477C794.897 -202.602 795.531 -235.937 801.661 -262.1C805.632 -279.067 811.617 -295.484 815.656 -312.441C819.289 -327.653 822.527 -344.803 816.338 -359.783Z" fill="#0E121F"/>
<path d="M1078.44 -399.667C1062.28 -389.053 1041.55 -386.565 1022.94 -390.989C1004.03 -395.489 988.371 -407.356 978.74 -424.042L1101.22 -424.048C1095.8 -414.533 1088.33 -406.156 1078.44 -399.667Z" fill="#0E121F"/>
<path d="M278.269 -401.556C261.333 -391.095 247.114 -377.107 234.535 -361.181C225.946 -350.307 218.148 -338.844 210.273 -327.459C203.506 -317.684 196.633 -304.342 185.47 -298.981C174.163 -293.563 160.792 -296.744 151.344 -304.417C141.338 -312.543 135.592 -324.795 131.523 -336.738C121.66 -365.677 123.336 -396.246 133.476 -424L419.205 -424.014C400.253 -415.925 379.258 -413.312 358.753 -412.135C331.607 -410.572 304.114 -410.618 278.269 -401.556Z" fill="#0E121F"/>
<path d="M1842.37 -87.4659C1820.66 -96.6034 1801.21 -108.98 1781.68 -121.984C1764.54 -133.406 1744.49 -146.795 1723.17 -147.989C1722.82 -147.951 1722.45 -147.931 1722.08 -147.883C1701.92 -145.328 1693 -123.84 1686.83 -107.143C1678.45 -84.4597 1669.74 -61.8148 1658.11 -40.5484C1647.74 -21.5956 1632.7 -3.30772 1610.62 1.66762C1590.92 6.11269 1572.16 -3.27578 1561.72 -20.1163C1550.05 -38.9427 1552.25 -62.2427 1561.1 -81.6966C1570.93 -103.32 1589.77 -119.111 1600.79 -140.088C1611.4 -160.265 1616.74 -182.717 1621.5 -204.851C1623.91 -216.033 1626.14 -227.245 1628.77 -238.379C1631.26 -248.896 1633.76 -259.867 1639.39 -269.227C1650.5 -287.727 1672.94 -295.479 1693.61 -295.624C1742.18 -295.945 1778.88 -259.864 1810.83 -227.871C1827.45 -211.223 1844.46 -194.46 1864.85 -182.421C1883.46 -171.432 1905.19 -167.211 1923.96 -156.762L1923.97 -73.463C1920.52 -72.4216 1916.98 -71.6983 1913.46 -71.3318C1889.53 -68.8339 1864.07 -78.3283 1842.37 -87.4659Z" fill="#0E121F"/>
<path d="M1885.53 -332.256C1872.41 -318.885 1853.95 -311.818 1835.55 -310.082C1787.74 -305.568 1747.34 -339.094 1711.13 -365.303C1701.47 -372.302 1691.65 -379.126 1681.32 -385.112C1671.03 -391.079 1659.6 -397.431 1647.71 -399.32C1625.36 -402.876 1616.09 -381.291 1612.2 -363.226C1609.73 -351.802 1608.48 -340.09 1606.8 -328.531C1604.79 -314.688 1602.77 -300.845 1600.76 -287.002C1597.29 -263.162 1594.67 -238.647 1585.4 -216.185C1577.51 -197.04 1564.06 -179.321 1545.07 -170.124C1527.05 -161.398 1506.75 -162.554 1489.41 -172.367C1438.98 -200.928 1432.85 -278.501 1430.65 -329.978C1429.39 -359.284 1432.53 -388.522 1433.76 -417.77C1433.84 -419.862 1433.9 -421.963 1433.93 -424.065L1484.39 -424.067C1484.07 -418.129 1484.2 -412.181 1485.17 -406.195C1486.81 -396.005 1490.9 -386.018 1497.97 -378.509C1517.47 -357.842 1549.38 -364.38 1565.59 -385.126C1574.68 -396.762 1580.05 -410.402 1585.38 -424.062L1712.23 -424.069C1725.32 -411.721 1738.37 -399.334 1752.8 -388.519C1761.74 -381.819 1772.7 -374.445 1784.49 -376.383C1795.09 -378.119 1801.91 -387.422 1803.96 -397.477C1805.82 -406.596 1804.53 -415.523 1801.62 -424.073L1887.05 -424.077C1894.43 -412.442 1900.02 -399.612 1902.02 -386.068C1904.92 -366.451 1899.58 -346.563 1885.53 -332.247L1885.53 -332.256Z" fill="#0E121F"/>
<path d="M1400.23 -358.771C1400.73 -325.147 1383.83 -292.322 1358.28 -271.421C1324.73 -243.974 1279.32 -238.979 1238.31 -249.764C1227.28 -252.665 1216.68 -256.732 1206.28 -261.378C1195.56 -266.159 1184.94 -271.364 1173.51 -274.323C1150.64 -280.251 1123.82 -277.531 1101.41 -270.637C1079.5 -263.898 1062.19 -248.637 1042.96 -236.875C1024.08 -225.325 1003.21 -216.851 981.623 -211.952C945.078 -203.651 916.861 -213.087 899.893 -247.385C887.832 -271.783 881.286 -299.247 898.106 -323.29C910.801 -341.433 931.951 -348.24 952.908 -351.124C975.967 -354.296 999.016 -351.184 1021.97 -348.621C1045.68 -345.971 1069.19 -345.249 1092.86 -348.798C1138.47 -355.644 1181.45 -374.126 1221.51 -396.435C1237.88 -405.556 1254.72 -415.997 1272.28 -424.057L1369.15 -424.061C1388.96 -409.381 1399.87 -384.134 1400.24 -358.771L1400.23 -358.771Z" fill="#0E121F"/>
<path d="M191.163 572.291C215.889 568.646 237.28 563.729 258.95 550.887C278.384 539.366 295.928 524.838 311.766 508.777C332.597 487.664 350.526 463.949 367.713 439.839C383.097 418.263 392.485 390.037 387.779 363.402C381.704 328.978 351.202 307.752 323.091 291.163C307.677 282.064 291.616 274.381 275.151 267.393C262.31 261.947 248.929 256.125 238.903 246.12C234.141 241.358 230.689 235.853 228.221 229.607C227.209 227.033 230.004 223.794 232.626 224.064C247.568 225.615 260.66 232.526 273.481 239.91C287.575 248.016 301.438 256.537 315.05 265.434C328.653 274.331 342.014 283.614 355.106 293.273C367.513 302.411 379.487 313.853 393.706 320.128C405.679 325.41 421.421 325.399 429.219 313.33C436.131 302.629 438.511 288.39 451.264 282.538C462.61 277.332 473.62 284.34 477.534 295.378C482.461 309.269 474.306 322.139 469.92 334.921C465.872 346.711 464.812 359.802 468.245 371.881C472.063 385.367 481.597 393.686 494.101 399.238C506.402 404.713 519.657 408.568 528.594 419.326C536.412 428.715 539.584 441.671 531.921 452.198C524.383 462.552 510.579 466.322 498.789 469.311C473.61 475.704 448.199 473.391 422.624 476.063C373.075 481.242 338.817 533.425 332.273 579.1C327.378 613.303 339.892 639.359 352.165 670.37C355.511 678.824 358.586 687.452 360.688 696.311C362.057 702.095 362.887 709.402 358.52 714.203C353.286 719.949 344.716 718.368 338.344 715.66C331.702 712.845 326.101 707.996 321.579 702.425C301.006 677.073 297.91 637.78 268.487 619.533C252.041 609.335 233.282 613.703 215.651 617.81C200.921 621.233 184.976 624.319 170.131 619.663C157.994 615.866 142.068 603.18 149.924 588.874C157.269 575.493 177.975 574.239 191.163 572.291Z" fill="#0E121F"/>
<path d="M1789.59 567.295C1793.34 555.014 1802.46 544.785 1813.46 538.152C1837.61 523.585 1866.02 526.264 1892.81 528.913C1903.2 529.935 1913.59 530.705 1924 531.187L1924.01 669.714C1916.83 667.005 1909.23 664.644 1901.2 662.562C1859.27 651.719 1770.27 630.66 1789.59 567.305L1789.59 567.295Z" fill="#0E121F"/>
<path d="M1012.82 -85.7664C1022.45 -101.345 1025.42 -119.661 1031.85 -136.58C1037.12 -150.491 1044.77 -163.254 1054.36 -174.601C1073.62 -197.391 1100.73 -213.858 1129.95 -220.048C1143.93 -223.008 1161.49 -225.515 1174.61 -218.402C1204.6 -202.14 1183.22 -157.564 1171.38 -136.837C1156.3 -110.433 1136.29 -84.3941 1137.02 -52.4568C1137.42 -34.536 1142.92 -17.1458 1148.26 -0.189269C1153.54 16.5551 1158.96 33.3478 1160.85 50.8829C1162.67 67.6563 1161.12 84.7963 1156.55 101.03C1151.69 118.248 1143.37 134.164 1132.31 147.901C1118.98 168.724 1097.88 183.137 1076.52 195.198C1052.15 208.955 1025.77 220.669 1005.28 240.182C993.069 251.808 983.854 266.162 978.167 282.04C971.864 299.652 971.016 317.496 970.381 336.005C969.823 352.644 968.002 369.899 958.42 384.042C949.995 396.487 936.269 404.489 920.96 402.89C887.287 399.383 871.071 365.595 851.009 343.154C840.771 331.693 828.316 322.217 812.352 321.861C795.318 321.467 778.93 328.707 761.839 327.301C754.474 326.694 746.781 324.699 741.074 319.763C722.612 303.791 742.893 276.557 757.98 267.167C773.577 257.449 792.133 252.975 807.027 242.206C835.223 221.816 843.916 185.126 842.015 152.042C839.748 112.682 818.625 80.8995 835.551 41.0084C852.573 0.885862 892.636 -14.5304 930.251 -29.7732C960.838 -42.1718 994.712 -56.4117 1012.82 -85.7568L1012.82 -85.7664ZM924.404 67.1284C918.64 88.7609 922.864 111.164 920.397 133.143C917.921 155.238 905.573 171.473 889.86 184.912C877.146 195.786 858.975 206.247 856.922 225.642C855.14 242.416 866.921 258.186 883.183 252.026C891.83 248.738 898.635 241.884 904.785 234.248C908.024 231.549 911.273 228.859 914.531 226.237C915.476 225.88 916.43 225.591 917.384 225.398C920.71 224.694 922.841 225.465 923.342 229.36C923.863 233.438 923.429 237.833 923.054 241.911C922.302 250.019 920.673 258.029 918.987 265.973C916.134 279.344 912.944 292.956 913.417 306.741C913.793 317.624 920.648 331.631 932.756 327.196C938.009 325.268 942.039 320.187 945.441 315.647C948.998 310.884 951.851 305.582 954.3 300.077C959.225 288.962 962.001 276.883 964.083 264.852C967.35 245.881 968.862 226.244 975.889 208.265C982.838 190.479 995.244 177.31 1009.72 166.474C1021.11 157.952 1033.29 150.76 1044.58 142.093C1058.97 131.045 1075.61 123.168 1087.55 108.64C1107.36 84.5387 1103.48 50.8279 1099.71 21.6381C1095.58 -10.5208 1095.47 -40.4722 1108.42 -70.8388C1112.98 -81.5684 1119.15 -91.2762 1123.96 -101.861C1128.03 -110.817 1131.09 -120.977 1129.02 -130.936C1127.31 -139.255 1122.4 -146.89 1114.64 -149.453C1106.3 -152.22 1097.22 -148.826 1090.65 -142.936C1083.22 -136.274 1078.26 -126.624 1073.68 -117.601C1068.65 -107.671 1064.24 -97.3562 1060.6 -86.7328C1053.95 -67.3368 1051.42 -46.3214 1043.27 -27.5327C1035.47 -9.5633 1021.36 0.135158 1004.44 5.9778C988.613 11.454 971.84 14.4145 957.101 23.1972C941.485 32.5102 929.349 48.5326 924.395 67.1284L924.404 67.1284Z" fill="#0E121F"/>
<path d="M1810.43 414.558C1794.92 408.331 1779.09 402.539 1762.6 399.551C1746.23 396.583 1727.33 396.073 1711.82 402.937C1679.37 417.293 1681.51 458.369 1683.08 487.819C1683.99 504.669 1684.53 522.128 1679.11 538.352C1675.04 550.556 1668.06 561.652 1659.16 570.917C1641.42 589.359 1615.96 600.832 1590.27 600.708C1560.65 600.555 1536.14 583.233 1514.77 564.417C1502.88 553.929 1491.52 542.747 1478.85 533.166C1466.19 523.584 1452.15 515.835 1437.25 510.35C1390.52 493.135 1339.07 497.698 1297.06 521.877C1277.4 538.979 1260.2 559.291 1246.52 581.214C1229.09 609.18 1219.34 641.783 1198.15 667.398C1162.12 710.992 1095.56 717.617 1046.95 692.594C993.63 665.162 964.62 603.621 963.634 545.463C962.445 476.055 996.201 410.049 1040.49 358.463C1063.67 331.47 1090.99 309.711 1118.72 287.701C1145.76 266.241 1170.9 243.326 1188.65 213.364C1205.61 184.751 1215.93 152.168 1218.2 118.967C1220.81 80.8025 1212.5 43.1684 1205.96 5.80408C1195.18 -55.7468 1189.87 -131.16 1242.03 -176.529C1264.81 -196.34 1295.12 -207.476 1325.38 -205.733C1355.84 -203.97 1385.65 -189.964 1406.09 -167.225C1449.33 -119.123 1442.71 -50.4765 1456.19 8.50037C1462.31 35.2993 1472.45 62.8499 1491.82 83.0062C1515.67 107.828 1549.14 112.29 1582.02 108.364C1598.97 106.339 1616.46 102.135 1630.2 91.5017C1641.67 82.6324 1649.63 70.312 1655.98 57.4616C1669.13 30.8352 1675.74 1.09565 1695.63 -21.7907C1713.58 -42.4598 1742.94 -58.7047 1769.48 -43.6868C1792.21 -30.8379 1797.22 -2.99791 1798.58 20.8803C1799.37 34.8776 1798.78 48.9039 1799.35 62.9108C1800.08 81.3231 1802.85 99.6197 1807.49 117.444C1812.04 134.959 1818.31 151.974 1826.4 168.149C1833.77 182.86 1842.69 197.078 1855.3 207.865C1868.15 218.844 1884.37 224.646 1900.37 229.302C1908.23 231.596 1916.13 233.755 1923.98 236.02L1923.99 444.918C1918.62 444.87 1913.27 444.62 1907.97 444.158C1873.28 441.171 1842.33 427.368 1810.43 414.558ZM1905.75 325.412C1899.16 309.622 1885.63 297.448 1871.16 288.898C1843.41 272.511 1810.4 264.974 1784.95 244.674C1771.31 233.791 1762.12 219.466 1756.52 203.021C1750.71 185.977 1748.51 168.095 1743.7 150.801C1739.86 136.978 1733.14 121.651 1719.38 115.202C1703.94 107.983 1686.51 115.098 1675.19 126.512C1662.32 139.488 1655.69 157.139 1644.37 171.32C1633.71 184.691 1620.51 195.923 1605.69 204.416C1575.28 221.857 1539.19 226.582 1505.34 217.445C1471.56 208.318 1444.03 186.706 1424.95 157.681C1406.94 130.285 1395.51 99.3219 1381.44 69.8724C1374.54 55.461 1367 41.2905 1357.77 28.2383C1348.63 15.2922 1337.58 1.38225 1323.5 -6.39647C1308.91 -14.4548 1292.55 -12.2851 1279.58 -2.22986C1265.99 8.30732 1258.9 24.3198 1257.49 41.1802C1255.79 61.4821 1261.52 81.5523 1265.62 101.227C1270.02 122.271 1273.28 143.556 1275.28 164.957C1277.07 184.044 1278.83 204.028 1274.27 222.855C1269.59 242.174 1257.05 255.265 1242.26 267.702C1201.3 302.157 1154.86 334.762 1117.23 373.497C1104.37 386.734 1090.32 400.635 1082.69 417.708C1076.25 432.139 1073.48 448.055 1072.88 463.778C1072.35 477.795 1074.12 492.939 1082.61 504.564C1103.31 532.915 1143.53 523.07 1169.9 509.583C1197.25 495.584 1216.88 472.177 1239.06 451.652C1239.76 451.006 1240.45 450.37 1241.15 449.744C1244.88 446.929 1248.72 444.258 1252.68 441.751C1283.5 422.277 1319.66 412.404 1356.02 412.055C1397 411.667 1436.58 422.819 1473.26 440.545C1504.29 455.543 1542.2 474.07 1575.94 455.376C1603.24 440.259 1607.59 407.117 1618.51 380.876C1624.46 366.579 1633.21 354.278 1647.29 347.115C1663.29 338.978 1682.06 337.705 1699.71 338.138C1720.07 338.628 1740.28 342.117 1759.67 348.372C1778.36 354.406 1795.14 363.949 1812.75 372.441C1828.08 379.834 1844.82 386.302 1862.15 384.98C1876.21 383.9 1890.95 378.616 1900.26 367.559C1910.31 355.595 1911.69 339.602 1905.75 325.412Z" fill="#0E121F"/>
<path d="M1789.4 332.513C1783.75 335.482 1776.84 335.232 1770.74 334.124C1753 330.905 1735.66 323.551 1718.68 317.69C1701.11 311.628 1683.31 305.806 1664.89 302.944C1642.25 299.417 1615.56 300.199 1595.86 313.252C1578.92 324.484 1567.69 342.887 1559.22 360.558C1552.27 375.066 1541.12 385.468 1526.19 391.456C1484.51 408.164 1444.31 389.84 1404.02 378.853C1363.96 367.923 1319.74 364.387 1280.18 379.244C1263.65 385.453 1250.05 396.521 1237.3 408.456C1230.98 414.375 1224.83 420.468 1218.42 426.281C1212.16 431.969 1205.58 438.062 1197.74 441.484C1184.14 447.413 1170.16 441.997 1165.48 427.739C1156.01 398.849 1183.16 370.602 1204.15 355.196C1231.27 335.317 1264.33 324.846 1290.35 303.367C1304.08 292.03 1316.21 278.273 1314.81 259.417C1314.07 249.382 1311.74 239.328 1310.05 229.418C1308.31 219.238 1306.57 209.058 1304.83 198.879C1303.31 189.971 1301.43 181.045 1300.49 172.051C1299.77 165.062 1299.95 157.523 1303.43 151.219C1311.16 137.221 1328.78 138.984 1340.28 146.917C1353.43 155.998 1360.74 171.479 1367.01 185.669C1373.6 200.572 1380.03 215.273 1390.93 227.621C1440.14 283.347 1525.42 278.764 1590.5 259.423C1607.32 254.419 1621.66 246.446 1633.55 233.431C1644.14 221.844 1652.73 208.482 1664.19 197.675C1674.17 188.266 1691.58 176.099 1704.36 187.898C1714.56 197.326 1711.29 213.531 1711.91 225.822C1712.72 241.477 1718.17 257.585 1730.09 268.265C1740.56 277.635 1754.68 281.886 1767.16 287.794C1778.95 293.375 1793.07 302.176 1796.52 315.768C1798.23 322.468 1795.59 329.264 1789.4 332.513Z" fill="#0E121F"/>
<path d="M110.539 290.942C132.259 309.672 145.284 337.232 136.58 365.834C128.214 393.328 104.366 414.518 79.3315 427.012C53.9596 439.681 24.5579 445.264 -4.00543 445.014L-4.01582 236.116C5.04591 238.718 14.0691 241.455 22.967 244.675C53.5167 255.721 85.7053 269.523 110.539 290.942Z" fill="#0E121F"/>
</g>
<defs>
<clipPath id="clip0_105_192">
<rect width="1919.95" height="1079.91" fill="white" transform="translate(1919.95 1080.01) rotate(-179.997)"/>
</clipPath>
</defs>
</svg>
